{
	"asset":{
		"version":"2.0",
		"generator":"Maxon Cinema 4D 2024.3.1 (#200000219)"
	},
	"scenes":[{
		"nodes":[0]
	}],
	"nodes":[{
		"name":"Cube",
		"mesh":0,
		"translation":[0.0,
		0.0,
		0.0],
		"rotation":[0.0,
		-1.2246468525851679e-16,
		0.0,
		1.0],
		"scale":[1.0,
		1.0,
		1.0],
		"children":[1]
	},
	{
		"name":"Cube.1",
		"mesh":1,
		"translation":[0.5,
		0.0,
		0.0],
		"rotation":[0.0,
		0.0,
		0.0,
		-1.0],
		"scale":[1.0,
		1.0,
		1.0]
	}],
	"meshes":[{
		"name":"Cube",
		"primitives":[{
			"attributes":{
				"POSITION":1,
				"NORMAL":2,
				"TEXCOORD_0":3
			},
			"indices":0
		}]
	},
	{
		"name":"Cube.1",
		"primitives":[{
			"attributes":{
				"POSITION":7,
				"NORMAL":8,
				"TEXCOORD_0":9
			},
			"indices":6
		}]
	}],
	"accessors":[{
		"bufferView":0,
		"type":"SCALAR",
		"componentType":5123,
		"count":36,
		"byteOffset":0,
		"min":[0],
		"max":[23]
	},
	{
		"bufferView":1,
		"type":"VEC3",
		"componentType":5126,
		"count":24,
		"byteOffset":0,
		"min":[-0.5,
		-0.5,
		-0.5],
		"max":[0.5,
		0.5,
		0.5]
	},
	{
		"bufferView":1,
		"type":"VEC3",
		"componentType":5126,
		"count":24,
		"byteOffset":12,
		"min":[-1.0,
		-1.0,
		-1.0],
		"max":[1.0,
		1.0,
		1.0]
	},
	{
		"bufferView":1,
		"type":"VEC2",
		"componentType":5126,
		"count":24,
		"byteOffset":24,
		"min":[0.0,
		0.0],
		"max":[1.0,
		1.0]
	},
	{
		"bufferView":2,
		"type":"SCALAR",
		"componentType":5126,
		"count":91,
		"byteOffset":0,
		"min":[0.0],
		"max":[3.0]
	},
	{
		"bufferView":2,
		"type":"VEC4",
		"componentType":5126,
		"count":91,
		"byteOffset":364,
		"min":[0.0,
		-1.0,
		-6.8632663996481828e-9,
		-1.0],
		"max":[7.994865214300262e-9,
		0.0,
		1.052827247605137e-8,
		1.0]
	},
	{
		"bufferView":3,
		"type":"SCALAR",
		"componentType":5123,
		"count":36,
		"byteOffset":0,
		"min":[0],
		"max":[23]
	},
	{
		"bufferView":4,
		"type":"VEC3",
		"componentType":5126,
		"count":24,
		"byteOffset":0,
		"min":[-0.25,
		-0.25,
		-0.25],
		"max":[0.25,
		0.25,
		0.25]
	},
	{
		"bufferView":4,
		"type":"VEC3",
		"componentType":5126,
		"count":24,
		"byteOffset":12,
		"min":[-1.0,
		-1.0,
		-1.0],
		"max":[1.0,
		1.0,
		1.0]
	},
	{
		"bufferView":4,
		"type":"VEC2",
		"componentType":5126,
		"count":24,
		"byteOffset":24,
		"min":[0.0,
		0.0],
		"max":[1.0,
		1.0]
	}],
	"bufferViews":[{
		"buffer":0,
		"byteOffset":0,
		"byteLength":72,
		"target":34963
	},
	{
		"buffer":0,
		"byteOffset":72,
		"byteLength":768,
		"target":34962,
		"byteStride":32
	},
	{
		"buffer":1,
		"byteOffset":0,
		"byteLength":1820
	},
	{
		"buffer":2,
		"byteOffset":0,
		"byteLength":72,
		"target":34963
	},
	{
		"buffer":2,
		"byteOffset":72,
		"byteLength":768,
		"target":34962,
		"byteStride":32
	}],
	"buffers":[{
		"uri":"data:application/octet-stream;base64,",
		"byteLength":840
	},
	{
		"uri":"data:application/octet-stream;base64,",
		"byteLength":1820
	},
	{
		"uri":"data:application/octet-stream;base64,",
		"byteLength":840
	}],
	"animations":[{
		"samplers":[{
			"input":4,
			"interpolation":"LINEAR",
			"output":5
		}],
		"channels":[{
			"sampler":0,
			"target":{
				"node":0,
				"path":"rotation"
			}
		}]
	}]
}